<svg xmlns="http://www.w3.org/2000/svg" width="307" height="97" viewBox="0 0 307 97">
    <g fill="none" fill-rule="nonzero">
        <g fill="#652580">
            <path d="M72.77 38.047c-7.596 0-13.86 2.623-18.084 8.085-3.102-5.246-9.416-8.085-18.3-8.085-7.061 0-12.952 2.623-16.964 7.445V39.12H0v56.715h19.422v-28.97c0-10.816 5.03-13.39 9.843-13.39 4.283 0 7.76 2.303 7.76 7.82v34.54H56.77V65.792c0-9.749 4.921-12.317 9.843-12.317 4.066 0 7.705 2.303 7.705 7.82v34.54h19.476V55.56C93.8 44.046 85.83 38.047 72.77 38.047zM112.426 33.657c5.803-.1 10.44-4.864 10.387-10.672-.052-5.809-4.773-10.489-10.577-10.485-5.803.004-10.519 4.69-10.563 10.498a10.623 10.623 0 0 0 3.143 7.586 10.604 10.604 0 0 0 7.61 3.073z"/>
            <path d="M194.12 21.232h-17.446v5.836c0 9.852-4.066 12.052-10.06 12.052h-13.807V21.232h-17.445v5.836c0 9.852-4.067 12.052-10.06 12.052h-22.833v56.715h19.638V53.957h10.85V76.77c0 12.155 6.585 19.064 18.62 19.064h12.043V81.269h-5.03c-3.856 0-5.778-1.875-5.778-6.693v-20.62h21.463v22.815c0 12.155 6.584 19.064 18.62 19.064h12.042V81.269h-5.03c-3.855 0-5.777-1.875-5.777-6.693v-20.62h10.807V39.12H194.13V21.232h-.01zM239.227 38.047c-19.264 0-32.535 10.708-32.535 29.398 0 18.744 13.379 29.452 32.535 29.452 19.319 0 32.693-10.713 32.693-29.452 0-18.685-13.271-29.398-32.693-29.398zm-.216 43.65c-7.868 0-12.898-5.836-12.898-14.247 0-8.459 5.03-14.3 12.898-14.3 8.349 0 13.482 5.836 13.482 14.3.005 8.41-5.133 14.247-13.482 14.247z"/>
        </g>
        <path fill="#E72679" d="M305.18 19.07L289.317 2.091a6.593 6.593 0 0 0-9.323-.31 6.606 6.606 0 0 0-.309 9.332l11.728 12.55-10.975 12.172a6.605 6.605 0 0 0 .5 9.3 6.592 6.592 0 0 0 9.294-.456l15.031-16.675a6.607 6.607 0 0 0-.081-8.936z"/>
        <ellipse cx="10.796" cy="11.011" fill="#652580" rx="10.704" ry="10.713" transform="translate(252.855 12.464)"/>
    </g>
</svg>
